<mxfile host="Electron" agent="Mozilla/5.0 (Macintosh; Intel Mac OS X 10_15_7) AppleWebKit/537.36 (KHTML, like Gecko) draw.io/26.2.2 Chrome/134.0.6998.178 Electron/35.1.2 Safari/537.36" version="26.2.2">
  <diagram id="E2ULkJl6go0xUk4_vNiQ" name="Page-1">
    <mxGraphModel dx="1861" dy="1418" grid="1" gridSize="10" guides="1" tooltips="1" connect="1" arrows="1" fold="1" page="1" pageScale="1" pageWidth="1100" pageHeight="850" math="0" shadow="0">
      <root>
        <mxCell id="0" />
        <mxCell id="1" parent="0" />
        <mxCell id="opaAOLAayRJyhGHME4Ob-3" value="" style="rounded=0;whiteSpace=wrap;html=1;strokeColor=none;fillColor=#D5E8D4;" parent="1" vertex="1">
          <mxGeometry x="620" y="170" width="300" height="430" as="geometry" />
        </mxCell>
        <mxCell id="opaAOLAayRJyhGHME4Ob-4" value="" style="rounded=0;whiteSpace=wrap;html=1;fillColor=#f9f7ed;strokeColor=none;" parent="1" vertex="1">
          <mxGeometry x="150" y="170" width="470" height="430" as="geometry" />
        </mxCell>
        <mxCell id="XKbH0hADGiryWMfeD4Mq-1" value="requirements report" style="shape=document;whiteSpace=wrap;html=1;boundedLbl=1;" parent="1" vertex="1">
          <mxGeometry x="650" y="450" width="120" height="80" as="geometry" />
        </mxCell>
        <mxCell id="H5XpePlX6ZwJJM3T6B_w-3" style="edgeStyle=orthogonalEdgeStyle;rounded=0;orthogonalLoop=1;jettySize=auto;html=1;exitX=0.25;exitY=1;exitDx=0;exitDy=0;entryX=0.5;entryY=1;entryDx=0;entryDy=0;entryPerimeter=0;dashed=1;" parent="1" source="XKbH0hADGiryWMfeD4Mq-48" target="H5XpePlX6ZwJJM3T6B_w-1" edge="1">
          <mxGeometry relative="1" as="geometry">
            <Array as="points">
              <mxPoint x="390" y="540" />
              <mxPoint x="250" y="540" />
            </Array>
          </mxGeometry>
        </mxCell>
        <mxCell id="XKbH0hADGiryWMfeD4Mq-39" style="edgeStyle=orthogonalEdgeStyle;rounded=0;orthogonalLoop=1;jettySize=auto;html=1;entryX=0.25;entryY=0;entryDx=0;entryDy=0;strokeColor=#0000FF;" parent="1" source="XKbH0hADGiryWMfeD4Mq-5" target="XKbH0hADGiryWMfeD4Mq-48" edge="1">
          <mxGeometry relative="1" as="geometry" />
        </mxCell>
        <mxCell id="XKbH0hADGiryWMfeD4Mq-5" value="&lt;span style=&quot;background-color: rgb(249 , 247 , 237)&quot;&gt;security&lt;br&gt;&amp;nbsp; &amp;nbsp;SME&amp;nbsp;&amp;nbsp;&lt;/span&gt;" style="shape=umlActor;verticalLabelPosition=bottom;labelBackgroundColor=#ffffff;verticalAlign=top;html=1;outlineConnect=0;fillColor=none;" parent="1" vertex="1">
          <mxGeometry x="370" y="190" width="30" height="60" as="geometry" />
        </mxCell>
        <mxCell id="XKbH0hADGiryWMfeD4Mq-40" style="edgeStyle=orthogonalEdgeStyle;rounded=0;orthogonalLoop=1;jettySize=auto;html=1;entryX=0.75;entryY=0;entryDx=0;entryDy=0;strokeColor=#0000FF;" parent="1" source="XKbH0hADGiryWMfeD4Mq-7" target="XKbH0hADGiryWMfeD4Mq-48" edge="1">
          <mxGeometry relative="1" as="geometry" />
        </mxCell>
        <mxCell id="XKbH0hADGiryWMfeD4Mq-42" style="edgeStyle=orthogonalEdgeStyle;rounded=0;orthogonalLoop=1;jettySize=auto;html=1;entryX=0.5;entryY=0;entryDx=0;entryDy=0;strokeColor=#0000FF;" parent="1" target="XKbH0hADGiryWMfeD4Mq-11" edge="1">
          <mxGeometry relative="1" as="geometry">
            <mxPoint x="710" y="250" as="sourcePoint" />
          </mxGeometry>
        </mxCell>
        <mxCell id="XKbH0hADGiryWMfeD4Mq-7" value="&lt;span style=&quot;background-color: rgb(249 , 247 , 237)&quot;&gt;development&lt;br&gt;&amp;nbsp; &amp;nbsp; &amp;nbsp; &amp;nbsp;SME&amp;nbsp; &amp;nbsp; &amp;nbsp;&amp;nbsp;&lt;/span&gt;" style="shape=umlActor;verticalLabelPosition=bottom;labelBackgroundColor=#ffffff;verticalAlign=top;html=1;outlineConnect=0;fillColor=none;" parent="1" vertex="1">
          <mxGeometry x="440" y="190" width="30" height="60" as="geometry" />
        </mxCell>
        <mxCell id="XKbH0hADGiryWMfeD4Mq-22" style="edgeStyle=orthogonalEdgeStyle;rounded=0;orthogonalLoop=1;jettySize=auto;html=1;entryX=0;entryY=0.25;entryDx=0;entryDy=0;strokeColor=#FF8000;" parent="1" source="XKbH0hADGiryWMfeD4Mq-9" target="XKbH0hADGiryWMfeD4Mq-48" edge="1">
          <mxGeometry relative="1" as="geometry" />
        </mxCell>
        <mxCell id="XKbH0hADGiryWMfeD4Mq-9" value="product element design" style="shape=note;whiteSpace=wrap;html=1;backgroundOutline=1;darkOpacity=0.05;" parent="1" vertex="1">
          <mxGeometry x="210" y="230" width="80" height="100" as="geometry" />
        </mxCell>
        <mxCell id="XKbH0hADGiryWMfeD4Mq-24" style="edgeStyle=orthogonalEdgeStyle;rounded=0;orthogonalLoop=1;jettySize=auto;html=1;entryX=0;entryY=0.5;entryDx=0;entryDy=0;exitX=1;exitY=0.5;exitDx=0;exitDy=0;entryPerimeter=0;" parent="1" source="XKbH0hADGiryWMfeD4Mq-48" target="opaAOLAayRJyhGHME4Ob-11" edge="1">
          <mxGeometry relative="1" as="geometry">
            <mxPoint x="650" y="370" as="sourcePoint" />
          </mxGeometry>
        </mxCell>
        <mxCell id="XKbH0hADGiryWMfeD4Mq-27" style="edgeStyle=orthogonalEdgeStyle;rounded=0;orthogonalLoop=1;jettySize=auto;html=1;entryX=0;entryY=0.5;entryDx=0;entryDy=0;entryPerimeter=0;" parent="1" source="XKbH0hADGiryWMfeD4Mq-11" target="XKbH0hADGiryWMfeD4Mq-12" edge="1">
          <mxGeometry relative="1" as="geometry" />
        </mxCell>
        <mxCell id="XKbH0hADGiryWMfeD4Mq-54" style="edgeStyle=orthogonalEdgeStyle;rounded=0;orthogonalLoop=1;jettySize=auto;html=1;entryX=0.5;entryY=0;entryDx=0;entryDy=0;exitX=0.5;exitY=1;exitDx=0;exitDy=0;" parent="1" source="XKbH0hADGiryWMfeD4Mq-11" target="XKbH0hADGiryWMfeD4Mq-1" edge="1">
          <mxGeometry relative="1" as="geometry" />
        </mxCell>
        <mxCell id="XKbH0hADGiryWMfeD4Mq-57" style="edgeStyle=orthogonalEdgeStyle;rounded=0;orthogonalLoop=1;jettySize=auto;html=1;exitX=0.5;exitY=1;exitDx=0;exitDy=0;entryX=0.5;entryY=1;entryDx=0;entryDy=0;entryPerimeter=0;dashed=1;" parent="1" source="XKbH0hADGiryWMfeD4Mq-48" target="XKbH0hADGiryWMfeD4Mq-9" edge="1">
          <mxGeometry relative="1" as="geometry">
            <mxPoint x="540" y="630" as="targetPoint" />
            <Array as="points">
              <mxPoint x="420" y="570" />
              <mxPoint x="180" y="570" />
              <mxPoint x="180" y="360" />
              <mxPoint x="250" y="360" />
            </Array>
          </mxGeometry>
        </mxCell>
        <mxCell id="XKbH0hADGiryWMfeD4Mq-11" value="attach security requirements as dependencies" style="shape=process;whiteSpace=wrap;html=1;backgroundOutline=1;" parent="1" vertex="1">
          <mxGeometry x="650" y="340" width="120" height="60" as="geometry" />
        </mxCell>
        <mxCell id="XKbH0hADGiryWMfeD4Mq-12" value="updated development requirements" style="shape=note;whiteSpace=wrap;html=1;backgroundOutline=1;darkOpacity=0.05;" parent="1" vertex="1">
          <mxGeometry x="820" y="320" width="80" height="100" as="geometry" />
        </mxCell>
        <mxCell id="33oguXZaT4OoUpjuBnur-2" style="edgeStyle=orthogonalEdgeStyle;rounded=0;orthogonalLoop=1;jettySize=auto;html=1;exitX=0.75;exitY=1;exitDx=0;exitDy=0;entryX=0.5;entryY=0;entryDx=0;entryDy=0;" parent="1" source="XKbH0hADGiryWMfeD4Mq-48" target="33oguXZaT4OoUpjuBnur-1" edge="1">
          <mxGeometry relative="1" as="geometry" />
        </mxCell>
        <mxCell id="XKbH0hADGiryWMfeD4Mq-48" value="design&lt;br&gt;security&lt;br&gt;analysis" style="shape=process;whiteSpace=wrap;html=1;backgroundOutline=1;" parent="1" vertex="1">
          <mxGeometry x="360" y="340" width="120" height="60" as="geometry" />
        </mxCell>
        <mxCell id="H5XpePlX6ZwJJM3T6B_w-2" style="edgeStyle=orthogonalEdgeStyle;rounded=0;orthogonalLoop=1;jettySize=auto;html=1;exitX=1.025;exitY=0.51;exitDx=0;exitDy=0;exitPerimeter=0;entryX=0;entryY=0.75;entryDx=0;entryDy=0;strokeColor=#FF8000;" parent="1" source="H5XpePlX6ZwJJM3T6B_w-1" target="XKbH0hADGiryWMfeD4Mq-48" edge="1">
          <mxGeometry relative="1" as="geometry" />
        </mxCell>
        <mxCell id="H5XpePlX6ZwJJM3T6B_w-1" value="element-level security requirements catalog" style="shape=note;whiteSpace=wrap;html=1;backgroundOutline=1;darkOpacity=0.05;" parent="1" vertex="1">
          <mxGeometry x="210" y="410" width="80" height="100" as="geometry" />
        </mxCell>
        <mxCell id="opaAOLAayRJyhGHME4Ob-5" value="design security analysis" style="text;html=1;strokeColor=none;fillColor=none;align=center;verticalAlign=middle;whiteSpace=wrap;rounded=0;" parent="1" vertex="1">
          <mxGeometry x="150" y="580" width="470" height="20" as="geometry" />
        </mxCell>
        <mxCell id="opaAOLAayRJyhGHME4Ob-6" value="attach security requirements" style="text;html=1;strokeColor=none;fillColor=none;align=center;verticalAlign=middle;whiteSpace=wrap;rounded=0;" parent="1" vertex="1">
          <mxGeometry x="620" y="580" width="300" height="20" as="geometry" />
        </mxCell>
        <mxCell id="opaAOLAayRJyhGHME4Ob-7" value="&lt;span style=&quot;background-color: rgb(213 , 232 , 212)&quot;&gt;development SME&lt;/span&gt;" style="shape=umlActor;verticalLabelPosition=bottom;labelBackgroundColor=#ffffff;verticalAlign=top;html=1;outlineConnect=0;fillColor=none;" parent="1" vertex="1">
          <mxGeometry x="695" y="190" width="30" height="60" as="geometry" />
        </mxCell>
        <mxCell id="opaAOLAayRJyhGHME4Ob-12" style="edgeStyle=orthogonalEdgeStyle;rounded=0;orthogonalLoop=1;jettySize=auto;html=1;entryX=0;entryY=0.5;entryDx=0;entryDy=0;strokeColor=#FF8000;" parent="1" source="opaAOLAayRJyhGHME4Ob-11" target="XKbH0hADGiryWMfeD4Mq-11" edge="1">
          <mxGeometry relative="1" as="geometry" />
        </mxCell>
        <mxCell id="opaAOLAayRJyhGHME4Ob-11" value="identified security requirements" style="shape=note;whiteSpace=wrap;html=1;backgroundOutline=1;darkOpacity=0.05;" parent="1" vertex="1">
          <mxGeometry x="520" y="320" width="80" height="100" as="geometry" />
        </mxCell>
        <mxCell id="33oguXZaT4OoUpjuBnur-1" value="design security analysis report" style="shape=document;whiteSpace=wrap;html=1;boundedLbl=1;" parent="1" vertex="1">
          <mxGeometry x="450" y="450" width="120" height="80" as="geometry" />
        </mxCell>
      </root>
    </mxGraphModel>
  </diagram>
</mxfile>
